<?xml version="1.0" encoding="utf-8"?>
<!-- Generator: Adobe Illustrator 16.0.0, SVG Export Plug-In . SVG Version: 6.00 Build 0)  -->
<!DOCTYPE svg PUBLIC "-//W3C//DTD SVG 1.1//EN" "http://www.w3.org/Graphics/SVG/1.1/DTD/svg11.dtd">
<svg version="1.1" xmlns="http://www.w3.org/2000/svg" xmlns:xlink="http://www.w3.org/1999/xlink" x="0px" y="0px" width="800px"
	 height="800px" viewBox="0 0 800 800" enable-background="new 0 0 800 800" xml:space="preserve">
<g id="Background">
</g>
<g id="Designed_by_freepik">
</g>
<g id="Object">
	<g>
		<path fill="#F3EEDB" d="M480.631,406.747c30.38-23.605,49.95-60.466,49.95-101.917c0-71.262-57.771-129.031-129.042-129.031
			c-71.263,0-129.032,57.77-129.032,129.031c0,41.452,19.569,78.313,49.949,101.917c-65.714,30.04-111.401,96.306-111.401,173.28
			c0,105.203,85.283,190.485,190.483,190.485c105.211,0,190.492-85.282,190.492-190.485
			C592.031,503.053,546.346,436.787,480.631,406.747z"/>
		<g>
			<defs>
				<path id="SVGID_1_" d="M391.929,275.535c6.624-2.243,13.813,1.313,16.052,7.937c2.242,6.625-1.313,13.812-7.939,16.053
					c-6.623,2.238-30.038,4.169-32.278-2.455C365.526,290.445,385.306,277.772,391.929,275.535z"/>
			</defs>
			<clipPath id="SVGID_2_">
				<use xlink:href="#SVGID_1_"  overflow="visible"/>
			</clipPath>
			<path clip-path="url(#SVGID_2_)" fill="#FF8A30" d="M391.929,275.535c6.624-2.243,13.813,1.313,16.052,7.937
				c2.242,6.625-1.313,13.812-7.939,16.053c-6.623,2.238-30.038,4.169-32.278-2.455
				C365.526,290.445,385.306,277.772,391.929,275.535z"/>
			<g clip-path="url(#SVGID_2_)">
				<path fill="#FFC299" d="M369.185,287.643c5.397-1.567,10.169,1.847,12.012,6.864c0.242,0.658,1.303,0.374,1.059-0.292
					c-2.049-5.578-7.365-9.372-13.362-7.631C368.215,286.782,368.504,287.841,369.185,287.643L369.185,287.643z"/>
			</g>
			<g clip-path="url(#SVGID_2_)">
				<path fill="#FFC299" d="M376.123,282.429c6.431-1.614,14.022,1.708,15.185,8.679c0.116,0.697,1.174,0.4,1.059-0.292
					c-1.261-7.558-9.566-11.195-16.536-9.446C375.145,281.542,375.436,282.601,376.123,282.429L376.123,282.429z"/>
			</g>
			<g clip-path="url(#SVGID_2_)">
				<path fill="#FFC299" d="M386.174,276.544c6.687-1.995,14.267,4.567,15.464,10.938c0.131,0.695,1.188,0.4,1.059-0.292
					c-1.308-6.957-9.575-13.864-16.814-11.705C385.206,275.688,385.494,276.747,386.174,276.544L386.174,276.544z"/>
			</g>
		</g>
		<g>
			<path fill="none" stroke="#1D1519" stroke-width="1.2839" stroke-miterlimit="10" d="M434.234,304.929
				c0,14.612-16.129,26.457-36.024,26.457c-19.89,0-36.014-11.845-36.014-26.457"/>
			<g>
				<path fill="#1D1519" d="M358.585,309.419c1.392-2.796,4.281-3.788,7.255-3.312c0.842,0.134,1.203-1.151,0.354-1.287
					c-3.541-0.566-7.089,0.565-8.762,3.925C357.051,309.513,358.202,310.189,358.585,309.419L358.585,309.419z"/>
			</g>
			<g>
				<path fill="#1D1519" d="M430.874,306.473c2.942-1.063,5.707,0.182,7.553,2.581c0.518,0.672,1.678,0.009,1.152-0.674
					c-2.19-2.848-5.517-4.475-9.06-3.194C429.717,305.476,430.063,306.766,430.874,306.473L430.874,306.473z"/>
			</g>
		</g>
		
			<image overflow="visible" width="352" height="352" xlink:href="9AF30E35.png"  transform="matrix(0.24 0 0 0.24 418.2012 247.1396)">
		</image>
		
			<image overflow="visible" width="352" height="352" xlink:href="9AF30E37.png"  transform="matrix(0.24 0 0 0.24 300.5552 247.1396)">
		</image>
		<path fill="#494949" d="M494.548,73.915c-1.862,6.517-44.171-0.363-95.608-0.116c-51.43-0.247-93.737,6.633-95.598,0.116
			c-2.035-6.103,40.231-24.198,95.598-24.039C454.316,49.717,496.581,67.813,494.548,73.915z"/>
		<g>
			<defs>
				<path id="SVGID_3_" d="M473.43,180.268l21.118-106.353H303.342l27.405,106.086c-24.701,3.496-40.456,8.794-40.456,14.723
					c0,10.529,49.648,19.064,110.892,19.064c61.254,0,110.902-8.535,110.902-19.064C512.085,188.941,497.084,183.764,473.43,180.268
					z"/>
			</defs>
			<clipPath id="SVGID_4_">
				<use xlink:href="#SVGID_3_"  overflow="visible"/>
			</clipPath>
			<path clip-path="url(#SVGID_4_)" fill="#333333" d="M473.43,180.268l21.118-106.353H303.342l27.405,106.086
				c-24.701,3.496-40.456,8.794-40.456,14.723c0,10.529,49.648,19.064,110.892,19.064c61.254,0,110.902-8.535,110.902-19.064
				C512.085,188.941,497.084,183.764,473.43,180.268z"/>
			<rect x="290.291" y="152.781" clip-path="url(#SVGID_4_)" fill="#F3EEDB" width="221.794" height="25.259"/>
		</g>
		<path fill="#494949" d="M517.228,204.852c-76.126,19.544-155.958,19.544-232.081,0c1.674-6.517,3.346-13.034,5.021-19.551
			c72.828,18.699,149.208,18.699,222.04,0C513.881,191.817,515.553,198.334,517.228,204.852z"/>
		<g>
			<g>
				<path fill="#822818" d="M138.99,367.708c40.941,60.396,95.038,110.001,140.898,166.419c1.842,2.266,5.024-0.957,3.2-3.201
					c-45.614-56.113-99.471-105.434-140.19-165.502C141.271,363.023,137.348,365.285,138.99,367.708L138.99,367.708z"/>
			</g>
			<g>
				<path fill="#822818" d="M108.945,391.175c23.752,6.13,44.7,19.255,67.282,28.407c2.707,1.097,3.872-3.283,1.203-4.365
					c-22.594-9.156-43.507-22.27-67.282-28.406C107.32,386.081,106.121,390.446,108.945,391.175L108.945,391.175z"/>
			</g>
			<g>
				<path fill="#822818" d="M163.169,348.584c9.045,22.815,10.796,47.45,16.71,71.095c0.708,2.83,5.073,1.629,4.364-1.203
					c-5.914-23.645-7.666-48.279-16.71-71.095C166.471,344.701,162.093,345.868,163.169,348.584L163.169,348.584z"/>
			</g>
		</g>
		<g>
			<g>
				<path fill="#822818" d="M674.809,365.424c-40.718,60.068-94.577,109.389-140.19,165.502c-1.823,2.244,1.358,5.467,3.201,3.201
					c45.859-56.418,99.957-106.022,140.897-166.419C680.359,365.285,676.437,363.023,674.809,365.424L674.809,365.424z"/>
			</g>
			<g>
				<path fill="#822818" d="M707.56,386.811c-23.774,6.136-44.688,19.25-67.281,28.406c-2.668,1.082-1.503,5.462,1.203,4.365
					c22.581-9.152,43.529-22.277,67.281-28.407C711.587,390.446,710.388,386.081,707.56,386.811L707.56,386.811z"/>
			</g>
			<g>
				<path fill="#822818" d="M650.175,347.381c-9.044,22.815-10.798,47.45-16.711,71.095c-0.708,2.832,3.657,4.033,4.365,1.203
					c5.912-23.645,7.666-48.279,16.711-71.095C655.616,345.868,651.237,344.701,650.175,347.381L650.175,347.381z"/>
			</g>
		</g>
		<g>
			<path fill="#A91E21" d="M414.454,506.153c0,8.97-7.27,16.24-16.243,16.24c-8.968,0-16.239-7.271-16.239-16.24
				c0-8.968,7.271-16.238,16.239-16.238C407.185,489.915,414.454,497.186,414.454,506.153z"/>
			<path fill="#A91E21" d="M414.454,573.665c0,8.97-7.27,16.24-16.243,16.24c-8.968,0-16.239-7.271-16.239-16.24
				c0-8.969,7.271-16.241,16.239-16.241C407.185,557.424,414.454,564.696,414.454,573.665z"/>
			<path fill="#A91E21" d="M414.454,638.558c0,8.971-7.27,16.24-16.243,16.24c-8.968,0-16.239-7.27-16.239-16.24
				c0-8.97,7.271-16.237,16.239-16.237C407.185,622.32,414.454,629.588,414.454,638.558z"/>
		</g>
		<g>
			<path fill="#1D1519" d="M351.704,266.151c1.689-4.294,5.144-7.13,9.874-6.965c4.966,0.173,8.111,4.704,9.348,9.014
				c0.322,1.12,2.068,0.643,1.746-0.481c-1.568-5.466-5.246-9.684-11.094-10.343c-5.478-0.618-9.765,3.578-11.62,8.294
				C349.53,266.757,351.281,267.224,351.704,266.151L351.704,266.151z"/>
		</g>
		<g>
			<path fill="#1D1519" d="M449.76,265.669c-1.979-5.028-6.047-8.489-11.623-8.294c-5.801,0.203-9.626,5.22-11.096,10.343
				c-0.322,1.125,1.425,1.602,1.746,0.481c1.321-4.605,4.339-8.45,9.35-9.014c4.648-0.524,8.29,2.932,9.877,6.965
				C448.437,267.224,450.188,266.757,449.76,265.669L449.76,265.669z"/>
		</g>
		<g>
			<g>
				<defs>
					<rect id="SVGID_5_" x="294.301" y="409.198" width="68.528" height="285.574"/>
				</defs>
				<clipPath id="SVGID_6_">
					<use xlink:href="#SVGID_5_"  overflow="visible"/>
				</clipPath>
				<rect x="294.301" y="409.198" clip-path="url(#SVGID_6_)" fill="#74A240" width="68.528" height="285.574"/>
				<g clip-path="url(#SVGID_6_)">
					<rect x="285.147" y="654.798" fill="#E61F26" width="102.974" height="19.042"/>
					<rect x="285.146" y="613.747" fill="#E61F26" width="102.974" height="19.043"/>
					<rect x="285.147" y="572.697" fill="#E61F26" width="102.974" height="19.043"/>
					<rect x="285.147" y="531.646" fill="#E61F26" width="102.974" height="19.043"/>
					<rect x="285.146" y="490.597" fill="#E61F26" width="102.974" height="19.043"/>
					<rect x="285.147" y="449.546" fill="#E61F26" width="102.974" height="19.043"/>
				</g>
			</g>
			<g>
				<path fill="#74A140" d="M298.347,690.433c-2.498,6.346-4.405,12.804-4.564,19.664c-0.068,2.92,4.458,2.914,4.526,0
					c0.15-6.456,2.056-12.5,4.402-18.461C303.782,688.917,299.403,687.749,298.347,690.433L298.347,690.433z"/>
			</g>
			<g>
				<path fill="#74A140" d="M311.724,691.596c-0.041,7.293-0.519,14.572-0.56,21.865c-0.016,2.919,4.51,2.918,4.526,0
					c0.041-7.293,0.519-14.572,0.56-21.865C316.266,688.677,311.74,688.678,311.724,691.596L311.724,691.596z"/>
			</g>
			<g>
				<path fill="#74A140" d="M327.423,692.716c0,6.354,0,12.708,0,19.063c0,2.919,4.526,2.919,4.526,0c0-6.354,0-12.708,0-19.063
					C331.949,689.797,327.423,689.797,327.423,692.716L327.423,692.716z"/>
			</g>
			<g>
				<path fill="#74A140" d="M355.205,692.177c4.233,5.909,7.646,12.139,9.864,19.081c0.885,2.769,5.255,1.585,4.364-1.203
					c-2.334-7.307-5.859-13.936-10.32-20.163C357.43,687.542,353.501,689.798,355.205,692.177L355.205,692.177z"/>
			</g>
			<g>
				<path fill="#74A140" d="M342.641,694.999c0.994,6.128,0.689,12.368,1.684,18.503c0.466,2.875,4.827,1.651,4.364-1.203
					c-0.993-6.128-0.689-12.368-1.684-18.503C346.539,690.921,342.178,692.145,342.641,694.999L342.641,694.999z"/>
			</g>
		</g>
		<g>
			<defs>
				<path id="SVGID_7_" d="M277.307,390.51c0,0-36.825-45.229,44.429-30.276c87.974,16.187,106.873,35.402,182.527-1.924
					c0,0,51.948-26.925,18.011,46.777c0,0,0.891,5.606,19.058,12.334s9.762,31.399-56.281,17.941
					c-66.05-13.455-179.787-9.538-210.145,3.955c-30.357,13.491-22.814-21.896,9.605-31.989
					C284.511,407.328,288.117,407.194,277.307,390.51z"/>
			</defs>
			<clipPath id="SVGID_8_">
				<use xlink:href="#SVGID_7_"  overflow="visible"/>
			</clipPath>
			<path clip-path="url(#SVGID_8_)" fill="#74A240" d="M277.307,390.51c0,0-36.825-45.229,44.429-30.276
				c87.974,16.187,106.873,35.402,182.527-1.924c0,0,51.948-26.925,18.011,46.777c0,0,0.891,5.606,19.058,12.334
				s9.762,31.399-56.281,17.941c-66.05-13.455-179.787-9.538-210.145,3.955c-30.357,13.491-22.814-21.896,9.605-31.989
				C284.511,407.328,288.117,407.194,277.307,390.51z"/>
			<g clip-path="url(#SVGID_8_)">
				<rect x="287.003" y="327.043" fill="#E61F26" width="15.841" height="141.768"/>
				<rect x="323.274" y="327.768" fill="#E61F26" width="15.841" height="141.769"/>
				<rect x="359.545" y="328.491" fill="#E61F26" width="15.841" height="141.768"/>
				<rect x="395.815" y="329.214" fill="#E61F26" width="15.841" height="141.769"/>
				<rect x="432.087" y="329.938" fill="#E61F26" width="15.841" height="141.769"/>
				<rect x="468.357" y="330.662" fill="#E61F26" width="15.842" height="141.769"/>
				<rect x="504.629" y="331.385" fill="#E61F26" width="15.841" height="141.769"/>
			</g>
		</g>
		<g>
			<g>
				<path fill="#97D18F" d="M432.501,128.011c0,0,6.674-12.224-4.015-16.027c0,0,7.027-4.532,4.262-12.676
					c0,0-0.695-1.858,0.619-0.306c5.472,6.458,12.676,4.261,12.676,4.261c-3.424,10.817,10.346,12.883,10.346,12.883
					c-6.389,7.564,5.012,12.006,5.012,12.006c-7.492,7.666,0.559,14.229,0.559,14.229c-2.638,2.354-3.478,5.296-3.695,7.513
					c-1.897-1.164-4.748-2.282-8.216-1.592c0,0-0.367-10.387-11.008-9.044C439.04,139.257,442.389,127.489,432.501,128.011z"/>
			</g>
			<g>
				<path fill="#97D18F" d="M472.859,115.558c0,0,13.794-1.918,10.486-12.77c0,0,7.822,2.947,12.722-4.123
					c0,0,1.076-1.666,0.614,0.314c-1.933,8.24,4.121,12.72,4.121,12.72c-10.727,3.689-4.188,15.981-4.188,15.981
					c-9.882-0.631-6.661,11.171-6.661,11.171c-10.622-1.452-11.104,8.923-11.104,8.923c-3.46-0.718-6.324,0.363-8.233,1.507
					c-0.193-2.216-0.994-5.173-3.612-7.551c0,0,8.125-6.477,0.714-14.227C467.718,127.503,479.164,123.187,472.859,115.558z"/>
			</g>
			<g>
				<circle fill="#EC1B1D" cx="453.498" cy="153.222" r="9.912"/>
				<circle fill="#EC1B1D" cx="473.277" cy="156.757" r="5.124"/>
				<path fill="#EC1B1D" d="M472.743,169.226c0.355,4.389-2.916,8.236-7.303,8.592c-4.392,0.355-8.239-2.911-8.595-7.3
					c-0.355-4.389,2.911-8.236,7.303-8.592C468.535,161.57,472.387,164.837,472.743,169.226z"/>
			</g>
		</g>
	</g>
</g>
</svg>
